<svg height="100%" stroke-miterlimit="10" version="1.1" viewBox="0 0 12800 12306.1" width="100%" xml:space="preserve" xmlns="http://www.w3.org/2000/svg" xmlns:xlink="http://www.w3.org/1999/xlink">
<path d="M6665.58 702.124C6684.58 704.116 6749.59 711.092 6810.59 717.068C7510.61 783.8 8240.72 1069.52 8810.89 1499.3C9043.95 1674.21 9345.07 1964.1 9518.15 2180.03C10227.5 3063.76 10534.9 4173.64 10376.3 5279.7C10240.7 6225.75 9773.03 7096.93 9068.27 7718.2C8927.32 7842.26 8728.38 7993.33 8590.41 8083.39L8497.44 8143.42L8550.44 8155.4C8692.45 8188.35 9022.49 8280.22 9178.51 8331.16C10845.7 8868.52 12075.1 9861.05 12564.6 11062.9C12714.7 11431.8 12799.9 11850.8 12800 12223.8C12800 12328.8 0.0415832 12334.7 0.00285795 12233.7C-0.118302 11917.7 59.7467 11565.7 166.627 11253.6C602.138 9977.45 1831.74 8926.98 3563.51 8352.31C3755.49 8288.24 4124.45 8182.1 4228.44 8162.06C4247.44 8158.05 4269.44 8152.04 4276.44 8148.04C4283.44 8144.04 4235.42 8105.06 4146.4 8044.09C3770.3 7790.23 3455.18 7490.36 3186.05 7132.46C3089 7003.5 3000.95 6870.53 2944.91 6771.55C2920.89 6728.56 2878.86 6654.58 2852.85 6607.59C2784.8 6489.61 2690.72 6279.65 2623.65 6100.67C2381.4 5445.77 2316.12 4726.79 2436.85 4022.75C2510.69 3591.72 2678.51 3122.65 2897.36 2733.57C2981.3 2585.54 3146.21 2342.47 3262.16 2197.43C3400.09 2024.38 3702.97 1721.26 3875.92 1583.19C4015.88 1471.14 4261.81 1304.05 4400.78 1224.99C4777.7 1011.85 5189.64 856.69 5610.61 771.528C5860.59 720.432 6020.58 705.371 6335.58 701.25C6497.58 699.188 6646.58 700.131 6665.58 702.124Z" fill="#646b79" fill-rule="nonzero" opacity="1" stroke="none"/>
</svg>
