<svg height="100%" stroke-miterlimit="10" version="1.1" viewBox="0 0 12800 12800" width="100%" xml:space="preserve" xmlns="http://www.w3.org/2000/svg" xmlns:xlink="http://www.w3.org/1999/xlink">
<path d="M6593.23 2330.42C6607.09 2331.87 6654.53 2336.96 6699.04 2341.32C7209.86 2390.02 7742.62 2598.51 8158.68 2912.13C8328.75 3039.76 8548.47 3251.29 8674.77 3408.86C9192.39 4053.73 9416.72 4863.62 9301 5670.72C9202.03 6361.06 8860.77 6996.77 8346.49 7450.12C8243.64 7540.64 8098.47 7650.89 7997.8 7716.6L7929.95 7760.41L7968.63 7769.15C8072.26 7793.19 8313.09 7860.23 8426.93 7897.4C9643.51 8289.52 10540.6 9013.78 10897.8 9890.75C11007.3 10160 11069.5 10465.7 11069.6 10737.9C11069.6 10775.7 8701.8 12304.1 6400 12306.1C4032.58 12308.1 1729.3 10782.5 1729.29 10745.1C1729.2 10514.5 1772.88 10257.6 1850.88 10029.9C2168.67 9098.71 3065.92 8332.17 4329.62 7912.84C4469.71 7866.08 4738.94 7788.63 4814.82 7774.01C4828.69 7771.08 4844.74 7766.7 4849.84 7763.78C4854.95 7760.86 4819.91 7732.41 4754.95 7687.92C4480.51 7502.68 4250.57 7283.86 4054.18 7022.7C3983.36 6928.59 3919.11 6831.56 3878.22 6759.34C3860.69 6727.97 3830.02 6673.98 3811.04 6639.69C3761.38 6553.61 3692.73 6400.39 3643.79 6269.79C3467.02 5791.9 3419.39 5267.26 3507.48 4753.51C3561.36 4438.98 3683.82 4096.7 3843.52 3812.78C3904.77 3704.76 4025.11 3527.4 4109.71 3421.56C4210.37 3295.28 4431.38 3074.09 4557.58 2973.34C4659.71 2891.58 4839.17 2769.65 4940.58 2711.96C5215.62 2556.43 5516.22 2443.21 5823.4 2381.06C6005.82 2343.78 6122.57 2332.79 6352.42 2329.78C6470.64 2328.28 6579.36 2328.96 6593.23 2330.42Z" fill="#646b79" fill-rule="nonzero" opacity="1" stroke="none"/>
</svg>
